<?xml version="1.0" encoding="UTF-8" standalone="no"?>
<!DOCTYPE svg PUBLIC "-//W3C//DTD SVG 1.1//EN" "http://www.w3.org/Graphics/SVG/1.1/DTD/svg11.dtd">
<svg width="100%" height="100%" viewBox="0 0 323 358" version="1.1" xmlns="http://www.w3.org/2000/svg" xmlns:xlink="http://www.w3.org/1999/xlink" xml:space="preserve" xmlns:serif="http://www.serif.com/" style="fill-rule:evenodd;clip-rule:evenodd;stroke-linejoin:round;stroke-miterlimit:2;">
    <g transform="matrix(1,0,0,1,-637.76,-906.328)">
        <g transform="matrix(1.89923,0,0,1.89923,-1632.06,-367.816)">
            <g transform="matrix(0.785548,0,0,0.785548,274.498,167.882)">
                <path d="M1173.33,727.219C1183.51,677.64 1227.43,640.306 1280,640.306C1332.57,640.306 1376.49,677.64 1386.67,727.219L1280,833.888L1173.33,727.219ZM1218.48,704.755L1209.21,727.129L1240.85,758.771L1263.23,749.503L1218.48,704.755ZM1341.52,704.755L1296.77,749.503L1319.15,758.771L1350.79,727.129L1341.52,704.755ZM1388.05,745.436C1386.91,775.353 1351.46,852.487 1338.4,879.979L1338.4,795.08L1388.05,745.436ZM1171.95,745.436L1221.6,795.08L1221.6,879.979C1208.54,852.487 1173.09,775.353 1171.95,745.436Z" style="fill:none;"/>
            </g>
        </g>
    </g>
</svg>
